<mxfile host="app.diagrams.net" modified="2023-09-08T13:51:08.263Z" agent="Mozilla/5.0 (X11; Linux x86_64; rv:109.0) Gecko/20100101 Firefox/116.0" etag="QbOf6zV3IathorKZw1ZB" version="21.7.2" type="device">
  <diagram name="Page-1" id="Vs-sZ3k6pBOKzFg-ea2b">
    <mxGraphModel dx="594" dy="2038" grid="1" gridSize="10" guides="1" tooltips="1" connect="1" arrows="1" fold="1" page="1" pageScale="1" pageWidth="850" pageHeight="1100" math="0" shadow="0">
      <root>
        <mxCell id="0" />
        <mxCell id="1" parent="0" />
        <mxCell id="lsYSEJzYXj3iPV_EKznm-46" value="" style="rounded=0;whiteSpace=wrap;html=1;fillColor=#A1AD00;strokeColor=none;strokeWidth=10;fontFamily=Noto Sans;fontStyle=1" vertex="1" parent="1">
          <mxGeometry x="2100" y="520" width="180" height="100" as="geometry" />
        </mxCell>
        <mxCell id="lsYSEJzYXj3iPV_EKznm-47" value="" style="rounded=0;whiteSpace=wrap;html=1;fillColor=#E07222;strokeColor=none;strokeWidth=10;fontFamily=Noto Sans;fontStyle=1" vertex="1" parent="1">
          <mxGeometry x="1950" y="520" width="140" height="100" as="geometry" />
        </mxCell>
        <mxCell id="lsYSEJzYXj3iPV_EKznm-48" value="" style="rounded=0;whiteSpace=wrap;html=1;fillColor=#A1AD00;strokeColor=none;strokeWidth=10;fontFamily=Noto Sans;fontStyle=1" vertex="1" parent="1">
          <mxGeometry x="1760" y="520" width="180" height="100" as="geometry" />
        </mxCell>
        <mxCell id="lsYSEJzYXj3iPV_EKznm-49" value="" style="edgeStyle=orthogonalEdgeStyle;rounded=0;orthogonalLoop=1;jettySize=auto;html=1;fontFamily=Noto Sans;fontStyle=1" edge="1" parent="1" source="lsYSEJzYXj3iPV_EKznm-50" target="lsYSEJzYXj3iPV_EKznm-54">
          <mxGeometry relative="1" as="geometry" />
        </mxCell>
        <mxCell id="lsYSEJzYXj3iPV_EKznm-50" value="&lt;font style=&quot;font-size: 24px;&quot;&gt;Preprocess&lt;/font&gt;" style="rounded=1;whiteSpace=wrap;html=1;fontFamily=Noto Sans;fontStyle=1" vertex="1" parent="1">
          <mxGeometry x="1300" y="535" width="130" height="70" as="geometry" />
        </mxCell>
        <mxCell id="lsYSEJzYXj3iPV_EKznm-51" value="&lt;font style=&quot;font-size: 24px;&quot;&gt;Postprocess&lt;/font&gt;" style="whiteSpace=wrap;html=1;rounded=1;fontFamily=Noto Sans;fontStyle=1;fontColor=default;" vertex="1" parent="1">
          <mxGeometry x="2700" y="540" width="150" height="60" as="geometry" />
        </mxCell>
        <mxCell id="lsYSEJzYXj3iPV_EKznm-52" value="" style="rounded=0;whiteSpace=wrap;html=1;fillColor=#005293;strokeColor=none;strokeWidth=10;perimeterSpacing=0;fontFamily=Noto Sans;fontStyle=1" vertex="1" parent="1">
          <mxGeometry x="1590" y="520" width="160" height="100" as="geometry" />
        </mxCell>
        <mxCell id="lsYSEJzYXj3iPV_EKznm-53" value="" style="edgeStyle=orthogonalEdgeStyle;rounded=0;orthogonalLoop=1;jettySize=auto;html=1;fontFamily=Noto Sans;fontStyle=1" edge="1" parent="1" source="lsYSEJzYXj3iPV_EKznm-54" target="lsYSEJzYXj3iPV_EKznm-56">
          <mxGeometry relative="1" as="geometry" />
        </mxCell>
        <mxCell id="lsYSEJzYXj3iPV_EKznm-54" value="&lt;font style=&quot;font-size: 24px;&quot;&gt;Any&lt;/font&gt;" style="ellipse;whiteSpace=wrap;html=1;aspect=fixed;fontFamily=Noto Sans;fontStyle=1" vertex="1" parent="1">
          <mxGeometry x="1470" y="535" width="70" height="70" as="geometry" />
        </mxCell>
        <mxCell id="lsYSEJzYXj3iPV_EKznm-55" value="" style="edgeStyle=orthogonalEdgeStyle;rounded=0;orthogonalLoop=1;jettySize=auto;html=1;fontFamily=Noto Sans;fontStyle=1" edge="1" parent="1" source="lsYSEJzYXj3iPV_EKznm-56" target="lsYSEJzYXj3iPV_EKznm-60">
          <mxGeometry relative="1" as="geometry" />
        </mxCell>
        <mxCell id="lsYSEJzYXj3iPV_EKznm-56" value="&lt;font style=&quot;font-size: 24px;&quot;&gt;Solve&lt;br&gt;F&lt;br&gt;&lt;/font&gt;" style="rounded=1;whiteSpace=wrap;html=1;fontFamily=Noto Sans;strokeColor=#ffffff;fillColor=none;fontColor=#ffffff;fontStyle=1" vertex="1" parent="1">
          <mxGeometry x="1610" y="540" width="120" height="60" as="geometry" />
        </mxCell>
        <mxCell id="lsYSEJzYXj3iPV_EKznm-57" value="" style="edgeStyle=orthogonalEdgeStyle;rounded=0;orthogonalLoop=1;jettySize=auto;html=1;fontFamily=Noto Sans;fontStyle=1" edge="1" parent="1" source="lsYSEJzYXj3iPV_EKznm-58" target="lsYSEJzYXj3iPV_EKznm-62">
          <mxGeometry relative="1" as="geometry" />
        </mxCell>
        <mxCell id="lsYSEJzYXj3iPV_EKznm-58" value="&lt;font style=&quot;font-size: 24px;&quot;&gt;Solve&lt;br&gt;S&lt;br&gt;&lt;/font&gt;" style="rounded=1;whiteSpace=wrap;html=1;fontFamily=Noto Sans;fontStyle=1;strokeColor=#ffffff;fillColor=none;fontColor=#ffffff;" vertex="1" parent="1">
          <mxGeometry x="1960" y="540" width="120" height="60" as="geometry" />
        </mxCell>
        <mxCell id="lsYSEJzYXj3iPV_EKznm-59" value="" style="edgeStyle=orthogonalEdgeStyle;rounded=0;orthogonalLoop=1;jettySize=auto;html=1;fontFamily=Noto Sans;fontStyle=1" edge="1" parent="1" source="lsYSEJzYXj3iPV_EKznm-60" target="lsYSEJzYXj3iPV_EKznm-58">
          <mxGeometry relative="1" as="geometry" />
        </mxCell>
        <mxCell id="lsYSEJzYXj3iPV_EKznm-60" value="&lt;font style=&quot;font-size: 24px;&quot;&gt;Transfer&lt;br&gt;F =&amp;gt; S&lt;br&gt;&lt;/font&gt;" style="rounded=1;whiteSpace=wrap;html=1;fontFamily=Noto Sans;fontStyle=1;strokeColor=#ffffff;fillColor=none;fontColor=#ffffff;" vertex="1" parent="1">
          <mxGeometry x="1770" y="540" width="160" height="60" as="geometry" />
        </mxCell>
        <mxCell id="lsYSEJzYXj3iPV_EKznm-71" value="" style="edgeStyle=orthogonalEdgeStyle;rounded=0;orthogonalLoop=1;jettySize=auto;html=1;fontStyle=1" edge="1" parent="1" source="lsYSEJzYXj3iPV_EKznm-62" target="lsYSEJzYXj3iPV_EKznm-68">
          <mxGeometry relative="1" as="geometry" />
        </mxCell>
        <mxCell id="lsYSEJzYXj3iPV_EKznm-62" value="&lt;font style=&quot;font-size: 24px;&quot;&gt;Transfer&lt;br&gt;S =&amp;gt; F&lt;/font&gt;" style="rounded=1;whiteSpace=wrap;html=1;fontFamily=Noto Sans;fontStyle=1;strokeColor=#ffffff;fillColor=none;fontColor=#ffffff;" vertex="1" parent="1">
          <mxGeometry x="2110" y="540" width="160" height="60" as="geometry" />
        </mxCell>
        <mxCell id="lsYSEJzYXj3iPV_EKznm-63" value="" style="edgeStyle=orthogonalEdgeStyle;rounded=0;orthogonalLoop=1;jettySize=auto;html=1;fontFamily=Noto Sans;fontStyle=1;fontColor=none;noLabel=1;" edge="1" parent="1" source="lsYSEJzYXj3iPV_EKznm-67" target="lsYSEJzYXj3iPV_EKznm-51">
          <mxGeometry relative="1" as="geometry" />
        </mxCell>
        <mxCell id="lsYSEJzYXj3iPV_EKznm-64" value="&lt;font style=&quot;font-size: 24px;&quot;&gt;Yes&lt;/font&gt;" style="edgeLabel;html=1;align=center;verticalAlign=middle;resizable=0;points=[];fontFamily=Noto Sans;fontStyle=1;fontColor=none;noLabel=1;" vertex="1" connectable="0" parent="lsYSEJzYXj3iPV_EKznm-63">
          <mxGeometry x="-0.142" relative="1" as="geometry">
            <mxPoint as="offset" />
          </mxGeometry>
        </mxCell>
        <mxCell id="lsYSEJzYXj3iPV_EKznm-65" style="edgeStyle=orthogonalEdgeStyle;rounded=0;orthogonalLoop=1;jettySize=auto;html=1;fontFamily=Noto Sans;fontStyle=1;entryX=0.5;entryY=1;entryDx=0;entryDy=0;" edge="1" parent="1" target="lsYSEJzYXj3iPV_EKznm-54">
          <mxGeometry relative="1" as="geometry">
            <mxPoint x="1484.98" y="605" as="targetPoint" />
            <Array as="points">
              <mxPoint x="2560" y="605" />
              <mxPoint x="2560" y="690" />
              <mxPoint x="1505" y="690" />
            </Array>
            <mxPoint x="2555.017037037037" y="605.2766884531593" as="sourcePoint" />
          </mxGeometry>
        </mxCell>
        <mxCell id="lsYSEJzYXj3iPV_EKznm-66" value="&lt;font style=&quot;font-size: 24px;&quot;&gt;No&lt;/font&gt;" style="edgeLabel;html=1;align=center;verticalAlign=middle;resizable=0;points=[];fontFamily=Noto Sans;fontStyle=1" vertex="1" connectable="0" parent="lsYSEJzYXj3iPV_EKznm-65">
          <mxGeometry x="0.063" y="1" relative="1" as="geometry">
            <mxPoint x="31" y="-21" as="offset" />
          </mxGeometry>
        </mxCell>
        <mxCell id="lsYSEJzYXj3iPV_EKznm-67" value="&lt;font style=&quot;font-size: 24px;&quot;&gt;Terminate?&lt;/font&gt;" style="rhombus;whiteSpace=wrap;html=1;rounded=1;fontFamily=Noto Sans;fontStyle=1;fontColor=default;" vertex="1" parent="1">
          <mxGeometry x="2480" y="530" width="170" height="80" as="geometry" />
        </mxCell>
        <mxCell id="lsYSEJzYXj3iPV_EKznm-70" value="" style="edgeStyle=orthogonalEdgeStyle;rounded=0;orthogonalLoop=1;jettySize=auto;html=1;fontStyle=1" edge="1" parent="1" source="lsYSEJzYXj3iPV_EKznm-68" target="lsYSEJzYXj3iPV_EKznm-67">
          <mxGeometry relative="1" as="geometry" />
        </mxCell>
        <mxCell id="lsYSEJzYXj3iPV_EKznm-72" style="edgeStyle=orthogonalEdgeStyle;rounded=0;orthogonalLoop=1;jettySize=auto;html=1;entryX=0.5;entryY=0;entryDx=0;entryDy=0;fontStyle=1" edge="1" parent="1" source="lsYSEJzYXj3iPV_EKznm-68" target="lsYSEJzYXj3iPV_EKznm-54">
          <mxGeometry relative="1" as="geometry">
            <mxPoint x="1770" y="440" as="targetPoint" />
            <Array as="points">
              <mxPoint x="2375" y="460" />
              <mxPoint x="1505" y="460" />
            </Array>
          </mxGeometry>
        </mxCell>
        <mxCell id="lsYSEJzYXj3iPV_EKznm-68" value="&lt;font style=&quot;font-size: 24px;&quot;&gt;Converged?&lt;/font&gt;" style="rhombus;whiteSpace=wrap;html=1;rounded=1;fontFamily=Noto Sans;fontStyle=1;fontColor=default;" vertex="1" parent="1">
          <mxGeometry x="2290" y="530" width="170" height="80" as="geometry" />
        </mxCell>
        <mxCell id="lsYSEJzYXj3iPV_EKznm-74" value="&lt;font style=&quot;font-size: 24px;&quot;&gt;No&lt;/font&gt;" style="edgeLabel;html=1;align=center;verticalAlign=middle;resizable=0;points=[];fontFamily=Noto Sans;fontStyle=1" vertex="1" connectable="0" parent="1">
          <mxGeometry x="2036.8315170166593" y="680.0303030303032" as="geometry">
            <mxPoint x="-12" y="-204" as="offset" />
          </mxGeometry>
        </mxCell>
        <mxCell id="lsYSEJzYXj3iPV_EKznm-75" value="&lt;font style=&quot;font-size: 24px;&quot;&gt;Yes&lt;/font&gt;" style="edgeLabel;html=1;align=center;verticalAlign=middle;resizable=0;points=[];fontFamily=Noto Sans;fontStyle=1" vertex="1" connectable="0" parent="1">
          <mxGeometry x="2460.0015170166594" y="540.0003030303033" as="geometry" />
        </mxCell>
        <mxCell id="lsYSEJzYXj3iPV_EKznm-76" value="&lt;font style=&quot;font-size: 24px;&quot;&gt;Yes&lt;/font&gt;" style="edgeLabel;html=1;align=center;verticalAlign=middle;resizable=0;points=[];fontFamily=Noto Sans;fontStyle=1" vertex="1" connectable="0" parent="1">
          <mxGeometry x="2660.0015170166594" y="540.0003030303033" as="geometry" />
        </mxCell>
      </root>
    </mxGraphModel>
  </diagram>
</mxfile>
